<svg height="512pt" viewBox="0 -30 512 512" fill="#f2b50f"  width="512pt" xmlns="http://www.w3.org/2000/svg"><path d="m451.875 122h60.125v210h-60.125zm0 0"/><path d="m436.84375 2c-41.441406 0-75.15625 33.644531-75.15625 75v15h150.3125v-15c0-41.355469-33.714844-75-75.15625-75zm0 0"/><path d="m424.335938 445.320312c5.929687 8.878907 19.0625 8.914063 25.015624 0l55.660157-83.320312h-136.335938zm0 0"/><path d="m361.6875 122h60.125v210h-60.125zm0 0"/><path d="m211.441406 105v-105h-196.410156c-8.300781 0-15.03125 6.714844-15.03125 15v422c0 8.285156 6.730469 15 15.03125 15h300.625c8.285156 0 15.007812-6.6875 15.03125-14.953125l.957031-317.046875h-105.171875c-8.300781 0-15.03125-6.714844-15.03125-15zm45.09375 286h-180.375c-8.300781 0-15.03125-6.714844-15.03125-15s6.730469-15 15.03125-15h180.375c8.300782 0 15.03125 6.714844 15.03125 15s-6.730468 15-15.03125 15zm0-60h-180.375c-8.300781 0-15.03125-6.714844-15.03125-15s6.730469-15 15.03125-15h180.375c8.300782 0 15.03125 6.714844 15.03125 15s-6.730468 15-15.03125 15zm0-60h-180.375c-8.300781 0-15.03125-6.714844-15.03125-15s6.730469-15 15.03125-15h180.375c8.300782 0 15.03125 6.714844 15.03125 15s-6.730468 15-15.03125 15zm15.03125-75c0 8.285156-6.730468 15-15.03125 15h-180.375c-8.300781 0-15.03125-6.714844-15.03125-15s6.730469-15 15.03125-15h180.375c8.300782 0 15.03125 6.714844 15.03125 15zm0 0"/><path d="m241.503906 8.785156v81.214844h81.382813zm0 0"/></svg>