<svg id="Layer_1" enable-background="new 0 0 511.85 511.85" height="512" viewBox="0 0 511.85 511.85" width="512" fill="#f2b50f" xmlns="http://www.w3.org/2000/svg"><g><path d="m431.089 84.398-78.663-75.776v75.776z"/><path d="m160.518 209.577h-120.772v302.273h432.357v-242.022h-241.124zm110.857 251.42h-30.9v-30.901h30.9zm-12.659-144.351c19.684 1.358 35.551 17.226 36.909 36.909 1.199 17.406-8.957 33.281-24.7 39.663v17.906h-30v-23.125c0-10.47 7.156-19.579 17.403-22.152 3.944-.989 7.74-4.82 7.367-10.229-.327-4.743-4.3-8.716-9.044-9.043-3.756-.269-6.246 1.522-7.406 2.605-2.009 1.875-3.115 4.42-3.115 7.164h-30c0-10.989 4.608-21.594 12.645-29.095 8.032-7.497 18.953-11.358 29.941-10.603z"/><path d="m242.058 239.828h197.982v-125.43h-117.614v-114.398h-250.615v179.577h99.785z"/></g></svg>