<svg xmlns="http://www.w3.org/2000/svg" viewBox="0 0 24.4 40.67"><defs><style>.cls-1{fill:#0039b7;}</style></defs><title>ico10</title><g id="Слой_2" data-name="Слой 2"><g id="step_6" data-name="step 6"><path class="cls-1" d="M3.39,35.25H21a.68.68,0,1,0,0-1.36H3.39a.68.68,0,1,0,0,1.36ZM10.17,38h4.07a.68.68,0,0,0,0-1.35H10.17a.68.68,0,1,0,0,1.35ZM3.39,5.42H21a.64.64,0,0,1,.68.68.64.64,0,0,1-.68.68H3.39a.64.64,0,0,1-.68-.68A.64.64,0,0,1,3.39,5.42Zm6.78-2.71h4.07a.64.64,0,0,1,.67.68.64.64,0,0,1-.67.68H10.17a.64.64,0,0,1-.68-.68A.64.64,0,0,1,10.17,2.71ZM2,0A2.09,2.09,0,0,0,0,2V38.64a2.09,2.09,0,0,0,2,2H22.37a2.09,2.09,0,0,0,2-2V2a2.09,2.09,0,0,0-2-2ZM2,1.36H22.37a.64.64,0,0,1,.68.67V38.64a.64.64,0,0,1-.68.68H2a.64.64,0,0,1-.67-.68V2A.64.64,0,0,1,2,1.36Z"/></g></g></svg>