<svg xmlns="http://www.w3.org/2000/svg" viewBox="0 0 38 38"><defs><style>.cls-1{fill:#0039b7;}</style></defs><title>ico20</title><g id="Слой_2" data-name="Слой 2"><g id="step_6" data-name="step 6"><path class="cls-1" d="M18.34,34.72V33.41a.66.66,0,0,1,1.32,0v1.31a.66.66,0,1,1-1.32,0Zm0-30.13V3.28a.66.66,0,1,1,1.32,0V4.59a.66.66,0,0,1-1.32,0ZM3.28,18.34H4.59a.66.66,0,0,1,0,1.32H3.28a.66.66,0,1,1,0-1.32Zm30.13,0h1.31a.66.66,0,0,1,0,1.32H33.41a.66.66,0,0,1,0-1.32ZM19,6.55a.62.62,0,0,0-.66.66v8.51A3.68,3.68,0,0,0,15.72,19,3.17,3.17,0,0,0,19,22.28a3.37,3.37,0,0,0,3.14-2.62H28a.66.66,0,0,0,0-1.32H22.28a3.8,3.8,0,0,0-2.62-2.62V7.34A.62.62,0,0,0,19,6.68ZM19,17a2,2,0,1,1-2,2A2,2,0,0,1,19,17ZM19,0A19,19,0,1,0,38,19,19,19,0,0,0,19,0Zm0,1.31A17.69,17.69,0,1,1,1.31,19,17.61,17.61,0,0,1,19,1.31Z"/></g></g></svg>