<svg xmlns="http://www.w3.org/2000/svg" viewBox="0 0 32.54 21.69"><defs><style>.cls-1{fill:#0039b7;}</style></defs><title>ico30</title><g id="Слой_2" data-name="Слой 2"><g id="step_6" data-name="step 6"><path class="cls-1" d="M3.39,2.71A.68.68,0,0,0,3,4L13.86,11.4a4.16,4.16,0,0,0,2.41.8,4.22,4.22,0,0,0,2.42-.8L29.53,4c.75-.5-.08-1.59-.77-1.11L17.92,10.29a2.71,2.71,0,0,1-3.3,0L3.78,2.83A.78.78,0,0,0,3.39,2.71ZM2,0A2,2,0,0,0,0,2V19.66a2,2,0,0,0,2,2H30.5a2,2,0,0,0,2-2V2a2,2,0,0,0-2-2ZM2,1.36H30.5a.66.66,0,0,1,.68.67V19.66a.66.66,0,0,1-.68.68H2a.66.66,0,0,1-.67-.68V2A.66.66,0,0,1,2,1.36Z"/></g></g></svg>