<svg xmlns="http://www.w3.org/2000/svg" viewBox="0 0 37.96 40.67"><defs><style>.cls-1{fill:#0039b7;}</style></defs><title>ico40</title><g id="Слой_2" data-name="Слой 2"><g id="step_6" data-name="step 6"><path class="cls-1" d="M3.39,14.91a.68.68,0,0,0-.67.61L0,38.56a2,2,0,0,0,2,2.11H35.92a2,2,0,0,0,2-2.11l-2.71-23a.68.68,0,1,0-1.35.16l2.71,23c0,.29-.3.6-.68.6H2c-.38,0-.72-.31-.68-.6l2.71-23a.69.69,0,0,0-.68-.77ZM19,5.42a5.43,5.43,0,1,0,5.42,5.43A5.43,5.43,0,0,0,19,5.42Zm0,1.36a4.07,4.07,0,1,1-4.07,4.07A4.06,4.06,0,0,1,19,6.78ZM19,0A10.86,10.86,0,0,0,8.13,10.85c0,4.3,2.2,9,4.59,12.57a32.48,32.48,0,0,0,3.49,4.48,12.78,12.78,0,0,0,1.45,1.34,2.11,2.11,0,0,0,1.32.59,2.08,2.08,0,0,0,1.31-.59,12,12,0,0,0,1.46-1.34,33.27,33.27,0,0,0,3.49-4.48c2.39-3.62,4.59-8.27,4.59-12.57A10.86,10.86,0,0,0,19,0Zm0,1.36a9.48,9.48,0,0,1,9.49,9.49c0,3.83-2.06,8.33-4.36,11.83A32.06,32.06,0,0,1,20.77,27a13.77,13.77,0,0,1-1.29,1.2.72.72,0,0,1-1,0A13.77,13.77,0,0,1,17.19,27a31.59,31.59,0,0,1-3.34-4.29c-2.3-3.49-4.36-8-4.36-11.82A9.48,9.48,0,0,1,19,1.36Z"/></g></g></svg>