<svg width="22" height="22" viewBox="0 0 22 22" fill="none" xmlns="http://www.w3.org/2000/svg">
<path d="M5.5 3.4375V2.75C5.50159 2.20348 5.71939 1.6798 6.10585 1.29335C6.4923 0.906895 7.01598 0.689087 7.5625 0.6875H17.1875C17.734 0.689087 18.2577 0.906895 18.6442 1.29335C19.0306 1.6798 19.2484 2.20348 19.25 2.75V18.5625L15.8125 15.8125" stroke="#B08E44" stroke-linejoin="round"/>
<path d="M13.75 4.125H4.8125C4.26598 4.12659 3.7423 4.3444 3.35585 4.73085C2.9694 5.1173 2.75159 5.64098 2.75 6.1875V21.3125L9.28125 15.8125L15.8125 21.3125V6.1875C15.8109 5.64098 15.5931 5.1173 15.2067 4.73085C14.8202 4.3444 14.2965 4.12659 13.75 4.125V4.125Z" stroke="#B08E44" stroke-linejoin="round"/>
</svg>
