<svg width="16" height="16" viewBox="0 0 16 16" fill="none" xmlns="http://www.w3.org/2000/svg">
<path d="M7.93506 3.9873C7.5395 3.9873 7.15282 4.1046 6.82392 4.32437C6.49502 4.54413 6.23868 4.85649 6.0873 5.22194C5.93593 5.58739 5.89632 5.98952 5.97349 6.37749C6.05066 6.76545 6.24114 7.12181 6.52085 7.40152C6.80055 7.68122 7.15692 7.8717 7.54488 7.94888C7.93284 8.02605 8.33497 7.98644 8.70043 7.83506C9.06588 7.68369 9.37824 7.42734 9.598 7.09845C9.81776 6.76955 9.93506 6.38287 9.93506 5.9873C9.93446 5.45706 9.72355 4.9487 9.34861 4.57376C8.97366 4.19882 8.46531 3.98791 7.93506 3.9873ZM7.93506 6.9873C7.73728 6.9873 7.54394 6.92866 7.37949 6.81877C7.21504 6.70889 7.08687 6.55271 7.01118 6.36999C6.93549 6.18726 6.91569 5.9862 6.95427 5.79221C6.99286 5.59823 7.0881 5.42005 7.22795 5.2802C7.36781 5.14035 7.54599 5.0451 7.73997 5.00652C7.93395 4.96793 8.13502 4.98774 8.31774 5.06343C8.50047 5.13911 8.65665 5.26729 8.76653 5.43173C8.87641 5.59618 8.93506 5.78952 8.93506 5.9873C8.93475 6.25243 8.8293 6.5066 8.64183 6.69407C8.45436 6.88154 8.20018 6.987 7.93506 6.9873Z" fill="#0028AA"/>
<path d="M11.7782 2.14122C10.828 1.19123 9.55958 0.626898 8.21774 0.55714C6.8759 0.487381 5.55577 0.917141 4.51216 1.76347C3.46855 2.60981 2.77543 3.81272 2.56657 5.14004C2.35771 6.46736 2.64792 7.825 3.38119 8.95093L7.15953 14.7513C7.24361 14.8804 7.35858 14.9865 7.494 15.0599C7.62943 15.1333 7.78103 15.1717 7.93508 15.1717C8.08912 15.1717 8.24072 15.1333 8.37615 15.0599C8.51158 14.9865 8.62654 14.8804 8.71062 14.7513L12.4891 8.95093C13.1695 7.90647 13.4702 6.65987 13.3407 5.42007C13.2113 4.18028 12.6597 3.02265 11.7782 2.14122ZM11.6512 8.40509L7.93509 14.1098L4.21894 8.40509C3.08144 6.65887 3.3254 4.322 4.79903 2.84831C5.21086 2.43647 5.69977 2.10978 6.23786 1.88689C6.77595 1.664 7.35267 1.54928 7.93509 1.54928C8.51751 1.54928 9.09423 1.664 9.63232 1.88689C10.1704 2.10978 10.6593 2.43647 11.0712 2.84831C12.5448 4.322 12.7887 6.65887 11.6512 8.40509Z" fill="#0028AA"/>
</svg>
