<svg width="90" height="90" viewBox="0 0 90 90" fill="none" xmlns="http://www.w3.org/2000/svg">
<path d="M45 48.75C47.0711 48.75 48.75 47.0711 48.75 45C48.75 42.9289 47.0711 41.25 45 41.25C42.9289 41.25 41.25 42.9289 41.25 45C41.25 47.0711 42.9289 48.75 45 48.75Z" fill="#B08E44"/>
<path d="M60 48.75C62.0711 48.75 63.75 47.0711 63.75 45C63.75 42.9289 62.0711 41.25 60 41.25C57.9289 41.25 56.25 42.9289 56.25 45C56.25 47.0711 57.9289 48.75 60 48.75Z" fill="#B08E44"/>
<path d="M30 48.75C32.0711 48.75 33.75 47.0711 33.75 45C33.75 42.9289 32.0711 41.25 30 41.25C27.9289 41.25 26.25 42.9289 26.25 45C26.25 47.0711 27.9289 48.75 30 48.75Z" fill="#B08E44"/>
<path d="M71.5125 18.4879C65.3595 12.2948 57.2386 8.4425 48.5498 7.59511C39.861 6.74772 31.1488 8.95837 23.9152 13.8459C16.6816 18.7335 11.3799 25.9917 8.9241 34.3692C6.46833 42.7467 7.01239 51.7186 10.4625 59.7379C10.8221 60.4833 10.9401 61.3223 10.8 62.1379L7.49999 78.0004C7.37285 78.6086 7.39881 79.2388 7.57554 79.8345C7.75227 80.4301 8.07423 80.9725 8.51249 81.4129C8.87175 81.7696 9.29951 82.0498 9.76999 82.2367C10.2405 82.4236 10.7439 82.5133 11.25 82.5004H12L28.05 79.2754C28.8657 79.1774 29.6929 79.2937 30.45 79.6129C38.4694 83.063 47.4412 83.6071 55.8187 81.1513C64.1962 78.6956 71.4544 73.3939 76.342 66.1602C81.2296 58.9266 83.4402 50.2144 82.5928 41.5256C81.7454 32.8368 77.8931 24.7159 71.7 18.5629L71.5125 18.4879ZM74.625 49.8379C73.8918 54.3154 72.1526 58.5682 69.5383 62.2763C66.924 65.9845 63.5027 69.0513 59.5318 71.2462C55.5609 73.441 51.144 74.7065 46.6133 74.9476C42.0827 75.1887 37.5563 74.399 33.375 72.6379C31.892 72.0072 30.299 71.6758 28.6875 71.6629C27.9835 71.6679 27.2812 71.7306 26.5875 71.8504L16.0125 73.9879L18.15 63.4129C18.5757 61.1227 18.3013 58.7574 17.3625 56.6254C15.6015 52.4441 14.8118 47.9178 15.0528 43.3871C15.2939 38.8565 16.5595 34.4395 18.7543 30.4686C20.9491 26.4978 24.016 23.0764 27.7241 20.4621C31.4322 17.8478 35.6851 16.1086 40.1625 15.3754C44.8623 14.6041 49.6781 14.9628 54.2118 16.4219C58.7454 17.881 62.8665 20.3985 66.2342 23.7662C69.6019 27.1339 72.1194 31.255 73.5785 35.7887C75.0376 40.3223 75.3963 45.1382 74.625 49.8379Z" fill="#B08E44"/>
</svg>
