<svg width="90" height="90" viewBox="0 0 90 90" fill="none" xmlns="http://www.w3.org/2000/svg">
<path d="M0.439453 36.7559C0.175781 38.8652 0 41.0098 0 43.1895C0 62.3496 10.4941 79.0312 26.0332 87.873L28.9336 81.7559V39.9727L25.7168 36.7559H0.439453ZM90 39.9727C90 36.7559 86.7832 33.5391 83.5664 33.5391H57.8496C59.4492 27.1055 61.0664 20.6895 61.0664 17.4727C61.0664 11.0391 57.8496 4.62305 56.25 3.00586C56.2148 2.9707 54.6504 1.40625 51.4336 1.40625C46.6172 1.40625 46.6172 6.22266 46.6172 6.22266C46.6172 6.31055 45.0176 14.2559 45.0176 17.4727C45.0176 20.6895 38.584 33.5391 35.3672 36.7559L32.1504 38.3555V83.3555L35.3672 84.9551H70.7168C77.1504 84.9551 80.3672 81.7383 80.3672 78.5215C80.3672 75.3047 77.1504 72.0879 73.9336 72.0879C80.3672 72.0879 83.584 68.8711 83.584 65.6543C83.584 62.4375 80.3672 59.2207 77.1504 59.2207C83.584 59.2207 86.8008 56.0039 86.8008 52.7871C86.8008 49.5703 83.584 46.3535 80.3672 46.3535C86.7832 46.4063 90 43.1895 90 39.9727Z" fill="#B08E44"/>
</svg>
