<svg width="17" height="33" viewBox="0 0 17 33" fill="none" xmlns="http://www.w3.org/2000/svg">
<path d="M13.375 0.453491H3.375C1.65 0.453491 0.25 2.0814 0.25 4.08721V28.7965C0.25 30.8023 1.65 32.4302 3.375 32.4302H13.375C15.1 32.4302 16.5 30.8023 16.5 28.7965V4.08721C16.5 2.0814 15.1 0.453491 13.375 0.453491ZM8.375 30.9767C7.3375 30.9767 6.5 30.0029 6.5 28.7965C6.5 27.5901 7.3375 26.6163 8.375 26.6163C9.4125 26.6163 10.25 27.5901 10.25 28.7965C10.25 30.0029 9.4125 30.9767 8.375 30.9767ZM14 25.1628H2.75V4.81396H14V25.1628Z" fill="#211F20"/>
</svg>
