<svg width="45" height="45" viewBox="0 0 45 45" fill="none" xmlns="http://www.w3.org/2000/svg">
<path d="M22.3164 11.2141C21.2039 11.2141 20.1164 11.544 19.1913 12.1621C18.2663 12.7802 17.5453 13.6587 17.1196 14.6865C16.6938 15.7144 16.5824 16.8454 16.7995 17.9365C17.0165 19.0276 17.5523 20.0299 18.3389 20.8166C19.1256 21.6033 20.1279 22.139 21.219 22.356C22.3102 22.5731 23.4412 22.4617 24.469 22.0359C25.4968 21.6102 26.3753 20.8892 26.9934 19.9642C27.6115 19.0392 27.9414 17.9516 27.9414 16.8391C27.9397 15.3478 27.3465 13.918 26.292 12.8635C25.2375 11.809 23.8077 11.2158 22.3164 11.2141ZM22.3164 19.6516C21.7601 19.6516 21.2164 19.4867 20.7539 19.1776C20.2914 18.8686 19.9309 18.4293 19.718 17.9154C19.5051 17.4015 19.4494 16.836 19.5579 16.2904C19.6665 15.7448 19.9343 15.2437 20.3277 14.8504C20.721 14.457 21.2221 14.1892 21.7677 14.0807C22.3133 13.9721 22.8788 14.0278 23.3927 14.2407C23.9066 14.4536 24.3459 14.8141 24.6549 15.2766C24.964 15.7391 25.1289 16.2829 25.1289 16.8391C25.128 17.5848 24.8315 18.2996 24.3042 18.8269C23.7769 19.3542 23.0621 19.6508 22.3164 19.6516Z" fill="#B08E44"/>
<path d="M33.1249 6.02199C30.4524 3.35015 26.8849 1.76297 23.111 1.56677C19.3371 1.37058 15.6242 2.57928 12.6891 4.95959C9.75392 7.3399 7.80451 10.7231 7.21709 14.4562C6.62968 18.1893 7.44589 22.0076 9.50821 25.1743L20.1348 41.488C20.3713 41.851 20.6946 42.1492 21.0755 42.3557C21.4564 42.5621 21.8828 42.6703 22.316 42.6703C22.7493 42.6703 23.1757 42.5621 23.5565 42.3557C23.9374 42.1492 24.2608 41.851 24.4973 41.488L35.1242 25.1743C37.0378 22.2368 37.8835 18.7307 37.5195 15.2438C37.1555 11.7569 35.604 8.50101 33.1249 6.02199ZM32.7677 23.6391L22.3161 39.6836L11.8644 23.6391C8.66516 18.7279 9.35133 12.1554 13.4959 8.01069C14.6542 6.85238 16.0292 5.93357 17.5426 5.30669C19.056 4.67982 20.678 4.35718 22.3161 4.35718C23.9541 4.35718 25.5762 4.67982 27.0895 5.30669C28.6029 5.93357 29.978 6.85238 31.1362 8.01069C35.2808 12.1554 35.9669 18.7279 32.7677 23.6391Z" fill="#B08E44"/>
</svg>
