<svg width="29" height="28" viewBox="0 0 29 28" fill="none" xmlns="http://www.w3.org/2000/svg">
<path d="M26.4512 4.4082H2.54883C1.1434 4.4082 0 5.51218 0 6.86914V21.1307C0 22.4876 1.1434 23.5916 2.54883 23.5916H26.4512C27.8566 23.5916 29 22.4876 29 21.1307V6.86914C29 5.51218 27.8566 4.4082 26.4512 4.4082ZM26.1185 6.04883L25.7783 6.32232L15.5113 14.5769C14.9253 15.048 14.0746 15.048 13.4887 14.5769L3.22166 6.32232L2.88148 6.04883H26.1185ZM1.69922 7.23325L10.0646 13.9589L1.69922 19.3343V7.23325ZM26.4512 21.951H2.54883C2.1383 21.951 1.79494 21.6683 1.71627 21.2941L11.427 15.0542L12.4015 15.8377C13.0094 16.3265 13.7548 16.5709 14.5001 16.5709C15.2453 16.5709 15.9906 16.3265 16.5986 15.8377L17.5731 15.0542L27.2838 21.2941C27.2051 21.6684 26.8617 21.951 26.4512 21.951ZM27.3008 19.3343L18.9354 13.9589L27.3008 7.23325V19.3343Z" fill="#B08E44"/>
</svg>
