<svg width="31" height="31" viewBox="0 0 31 31" fill="none" xmlns="http://www.w3.org/2000/svg">
<path d="M24.5122 19.2035C23.8767 18.5427 23.1101 18.1894 22.2976 18.1894C21.4917 18.1894 20.7185 18.5361 20.0568 19.197L17.9863 21.2579C17.8159 21.1663 17.6456 21.0813 17.4818 20.9962C17.2459 20.8784 17.0231 20.7672 16.8331 20.6494C14.8937 19.4194 13.1312 17.8164 11.4407 15.7424C10.6217 14.7086 10.0714 13.8384 9.67167 12.9552C10.2089 12.4645 10.7069 11.9541 11.1918 11.4634C11.3752 11.2802 11.5587 11.0905 11.7421 10.9073C13.1181 9.5333 13.1181 7.75367 11.7421 6.37969L9.95341 4.59351C9.7503 4.39069 9.54063 4.18132 9.34407 3.97195C8.95094 3.5663 8.53816 3.14756 8.11227 2.755C7.47671 2.12689 6.71667 1.79321 5.91731 1.79321C5.11795 1.79321 4.3448 2.12689 3.68959 2.755C3.68304 2.76154 3.68304 2.76154 3.67649 2.76808L1.44877 5.01225C0.610099 5.84972 0.131795 6.87039 0.026961 8.05463C-0.13029 9.96512 0.433192 11.7447 0.865632 12.9094C1.92707 15.7685 3.51269 18.4184 5.878 21.2579C8.74782 24.6798 12.2008 27.3819 16.1452 29.2859C17.6521 29.999 19.6636 30.8431 21.911 30.987C22.0486 30.9935 22.1928 31.0001 22.3238 31.0001C23.8373 31.0001 25.1085 30.457 26.1044 29.3775C26.1109 29.3644 26.124 29.3579 26.1306 29.3448C26.4713 28.9326 26.8644 28.5596 27.2772 28.1605C27.5589 27.8923 27.8472 27.6109 28.129 27.3165C28.7776 26.6426 29.1183 25.8575 29.1183 25.0527C29.1183 24.2414 28.7711 23.4628 28.1093 22.8086L24.5122 19.2035ZM26.8579 26.093C26.8513 26.093 26.8513 26.0996 26.8579 26.093C26.6023 26.3678 26.3403 26.6164 26.0585 26.8912C25.6326 27.2969 25.2002 27.7222 24.794 28.1998C24.1322 28.9064 23.3525 29.2401 22.3304 29.2401C22.2321 29.2401 22.1272 29.2401 22.029 29.2335C20.083 29.1092 18.2746 28.3503 16.9183 27.7025C13.2098 25.9098 9.95341 23.3647 7.24739 20.1391C5.01312 17.45 3.51924 14.9638 2.52987 12.2943C1.92052 10.6652 1.69775 9.3959 1.79603 8.19857C1.86155 7.43307 2.1564 6.79842 2.70022 6.25537L4.93449 4.02429C5.25555 3.72333 5.59626 3.55976 5.93042 3.55976C6.3432 3.55976 6.67736 3.80838 6.88702 4.01775C6.89358 4.02429 6.90013 4.03084 6.90668 4.03738C7.30636 4.41032 7.68638 4.79634 8.08606 5.20853C8.28918 5.4179 8.49884 5.62727 8.70851 5.84318L10.4972 7.62935C11.1918 8.32289 11.1918 8.96408 10.4972 9.65761C10.3072 9.84735 10.1238 10.0371 9.93376 10.2203C9.38338 10.783 8.85921 11.3064 8.28918 11.8167C8.27607 11.8298 8.26297 11.8363 8.25642 11.8494C7.69293 12.4121 7.79777 12.9617 7.91571 13.3346C7.92226 13.3543 7.92881 13.3739 7.93536 13.3935C8.40056 14.5189 9.05577 15.5788 10.0517 16.8416L10.0582 16.8481C11.8666 19.0726 13.7733 20.8065 15.8765 22.1346C16.1452 22.3048 16.4203 22.4422 16.6824 22.573C16.9183 22.6908 17.1411 22.802 17.3311 22.9198C17.3573 22.9329 17.3835 22.9525 17.4097 22.9656C17.6325 23.0768 17.8422 23.1291 18.0584 23.1291C18.6022 23.1291 18.9429 22.7889 19.0543 22.6777L21.2951 20.4401C21.5179 20.2176 21.8717 19.9494 22.2845 19.9494C22.6907 19.9494 23.0249 20.2045 23.228 20.427C23.2345 20.4335 23.2345 20.4335 23.2411 20.4401L26.8513 24.0451C27.5262 24.7125 27.5262 25.3995 26.8579 26.093Z" fill="#B08E44"/>
<path d="M16.7554 7.37402C18.4721 7.66191 20.0315 8.47321 21.2764 9.71633C22.5213 10.9595 23.3272 12.5166 23.622 14.2308C23.6941 14.6627 24.0676 14.9636 24.4935 14.9636C24.5459 14.9636 24.5918 14.9571 24.6442 14.9505C25.129 14.872 25.4501 14.414 25.3715 13.9299C25.0177 11.8558 24.0348 9.96496 22.5344 8.46667C21.034 6.96837 19.1404 5.98696 17.0634 5.63365C16.5785 5.55514 16.1264 5.87573 16.0412 6.35335C15.9561 6.83098 16.2706 7.29551 16.7554 7.37402Z" fill="#B08E44"/>
<path d="M30.9856 13.6748C30.4025 10.2594 28.7906 7.15162 26.3139 4.67846C23.8372 2.20529 20.725 0.595772 17.3048 0.013466C16.8265 -0.07159 16.3744 0.255548 16.2892 0.73317C16.2106 1.21733 16.5316 1.66879 17.0165 1.75384C20.0698 2.27072 22.8544 3.71667 25.069 5.92158C27.2836 8.13304 28.7251 10.9137 29.2427 13.9626C29.3148 14.3945 29.6883 14.6954 30.1142 14.6954C30.1666 14.6954 30.2124 14.6889 30.2649 14.6823C30.7432 14.6104 31.0708 14.1524 30.9856 13.6748Z" fill="#B08E44"/>
</svg>
