<svg width="71" height="71" viewBox="0 0 71 71" fill="none" xmlns="http://www.w3.org/2000/svg">
<path d="M63.5396 19.1765C62.3403 17.9552 60.6842 17.2335 58.7997 17.2335H49.3199V17.1225C49.3199 15.7347 48.7488 14.4024 47.778 13.5142C46.8071 12.5705 45.4937 12.0154 44.066 12.0154H26.9338C25.449 12.0154 24.1355 12.5705 23.1647 13.5142C22.1939 14.4579 21.6228 15.7347 21.6228 17.1225V17.2335H12.2001C10.3155 17.2335 8.65944 17.9552 7.46018 19.1765C6.26093 20.3422 5.46143 22.0076 5.46143 23.784V51.4291C5.46143 53.261 6.20382 54.8708 7.46018 56.0366C8.65944 57.2023 10.3727 57.9795 12.2001 57.9795H58.7997C60.6842 57.9795 62.3403 57.2578 63.5396 56.0366C64.7388 54.8708 65.5383 53.2055 65.5383 51.4291V23.784C65.5383 21.9521 64.796 20.3422 63.5396 19.1765ZM62.5688 51.4291H62.5117C62.5117 52.4283 62.1119 53.3165 61.4266 53.9826C60.7413 54.6488 59.8276 55.0374 58.7997 55.0374H12.2001C11.1722 55.0374 10.2584 54.6488 9.57315 53.9826C8.88787 53.3165 8.48812 52.4283 8.48812 51.4291V23.784C8.48812 22.7848 8.88787 21.8966 9.57315 21.2304C10.2584 20.5643 11.1722 20.1757 12.2001 20.1757H23.2218C24.0784 20.1757 24.7637 19.5095 24.7637 18.6768V17.067C24.7637 16.4564 24.9921 15.9012 25.3919 15.5127C25.7916 15.1241 26.3627 14.902 26.9909 14.902H44.066C44.6942 14.902 45.2652 15.1241 45.665 15.5127C46.0647 15.9012 46.2932 16.4564 46.2932 17.067V18.6768C46.2932 19.5095 46.9785 20.1757 47.8351 20.1757H58.8568C59.8847 20.1757 60.7984 20.5643 61.4837 21.2304C62.169 21.8966 62.5688 22.7848 62.5688 23.784V51.4291Z" fill="#1D1C1F"/>
<path d="M35.4998 23.9504C31.6165 23.9504 28.0759 25.5048 25.5631 27.9473C22.9933 30.4454 21.4514 33.8316 21.4514 37.6065C21.4514 41.3813 23.0504 44.823 25.5631 47.2656C28.133 49.7636 31.6165 51.2625 35.4998 51.2625C39.3831 51.2625 42.9238 49.7081 45.4365 47.2656C48.0063 44.7675 49.5482 41.3813 49.5482 37.6065C49.5482 33.8316 47.9492 30.3899 45.4365 27.9473C42.9238 25.5048 39.3831 23.9504 35.4998 23.9504ZM43.2664 45.2116C41.2677 47.099 38.5265 48.3203 35.4998 48.3203C32.4731 48.3203 29.732 47.099 27.7332 45.2116C25.7345 43.2687 24.5352 40.6041 24.5352 37.662C24.5352 34.7198 25.7916 32.0552 27.7332 30.1123C29.732 28.1694 32.4731 27.0036 35.4998 27.0036C38.5265 27.0036 41.2677 28.2249 43.2664 30.1123C45.2652 32.0552 46.4644 34.7198 46.4644 37.662C46.5215 40.6041 45.2652 43.2687 43.2664 45.2116Z" fill="#1D1C1F"/>
<path d="M55.8302 29.3352C57.3757 29.3352 58.6285 28.1174 58.6285 26.6151C58.6285 25.1128 57.3757 23.895 55.8302 23.895C54.2848 23.895 53.032 25.1128 53.032 26.6151C53.032 28.1174 54.2848 29.3352 55.8302 29.3352Z" fill="#1D1C1F"/>
</svg>
